<mxfile host="app.diagrams.net" agent="Mozilla/5.0 (Windows NT 10.0; Win64; x64) AppleWebKit/537.36 (KHTML, like Gecko) Chrome/133.0.0.0 Safari/537.36 OPR/118.0.0.0" version="26.2.14">
  <diagram name="Страница — 1" id="jkcYbJlOmVTbAYnmj0xH">
    <mxGraphModel dx="1385" dy="796" grid="1" gridSize="10" guides="1" tooltips="1" connect="1" arrows="1" fold="1" page="1" pageScale="1" pageWidth="827" pageHeight="1169" background="#ffffff" math="0" shadow="1">
      <root>
        <mxCell id="0" />
        <mxCell id="1" parent="0" />
        <mxCell id="p0OhxFANoe4dollfx0cS-5" value="" style="shape=note;whiteSpace=wrap;html=1;backgroundOutline=1;darkOpacity=0.05;" parent="1" vertex="1">
          <mxGeometry x="20" y="170" width="400" height="60" as="geometry" />
        </mxCell>
        <mxCell id="p0OhxFANoe4dollfx0cS-6" value="" style="rounded=0;whiteSpace=wrap;html=1;" parent="1" vertex="1">
          <mxGeometry x="20" y="230" width="780" height="690" as="geometry" />
        </mxCell>
        <mxCell id="p0OhxFANoe4dollfx0cS-8" value="" style="rounded=0;whiteSpace=wrap;html=1;" parent="1" vertex="1">
          <mxGeometry x="180" y="250" width="600" height="620" as="geometry" />
        </mxCell>
        <mxCell id="p0OhxFANoe4dollfx0cS-9" value="Пользователь" style="shape=umlActor;verticalLabelPosition=bottom;verticalAlign=top;html=1;outlineConnect=0;" parent="1" vertex="1">
          <mxGeometry x="90" y="490" width="30" height="60" as="geometry" />
        </mxCell>
        <mxCell id="p0OhxFANoe4dollfx0cS-10" value="Диаграмма процессов - Мобильное приложение об новостях&amp;nbsp;" style="text;html=1;align=center;verticalAlign=middle;whiteSpace=wrap;rounded=0;" parent="1" vertex="1">
          <mxGeometry x="30" y="185" width="360" height="30" as="geometry" />
        </mxCell>
        <mxCell id="p0OhxFANoe4dollfx0cS-11" value="Просмотр&amp;nbsp;&lt;div&gt;новостей&lt;/div&gt;" style="ellipse;whiteSpace=wrap;html=1;" parent="1" vertex="1">
          <mxGeometry x="250" y="340" width="120" height="60" as="geometry" />
        </mxCell>
        <mxCell id="p0OhxFANoe4dollfx0cS-12" value="Создание&amp;nbsp;&lt;div&gt;новостей&lt;/div&gt;" style="ellipse;whiteSpace=wrap;html=1;" parent="1" vertex="1">
          <mxGeometry x="250" y="730" width="120" height="55" as="geometry" />
        </mxCell>
        <mxCell id="p0OhxFANoe4dollfx0cS-15" value="&lt;font style=&quot;font-size: 8px;&quot;&gt;Просмотр заголовков новостей&lt;/font&gt;" style="ellipse;whiteSpace=wrap;html=1;" parent="1" vertex="1">
          <mxGeometry x="320" y="260" width="86" height="40" as="geometry" />
        </mxCell>
        <mxCell id="p0OhxFANoe4dollfx0cS-16" value="" style="endArrow=classic;html=1;rounded=0;exitX=0.5;exitY=1;exitDx=0;exitDy=0;entryX=0.5;entryY=0;entryDx=0;entryDy=0;" parent="1" source="p0OhxFANoe4dollfx0cS-15" target="p0OhxFANoe4dollfx0cS-11" edge="1">
          <mxGeometry width="50" height="50" relative="1" as="geometry">
            <mxPoint x="400" y="360" as="sourcePoint" />
            <mxPoint x="450" y="310" as="targetPoint" />
          </mxGeometry>
        </mxCell>
        <mxCell id="p0OhxFANoe4dollfx0cS-24" value="Extends" style="edgeLabel;html=1;align=center;verticalAlign=middle;resizable=0;points=[];" parent="p0OhxFANoe4dollfx0cS-16" vertex="1" connectable="0">
          <mxGeometry x="0.0688" relative="1" as="geometry">
            <mxPoint as="offset" />
          </mxGeometry>
        </mxCell>
        <mxCell id="p0OhxFANoe4dollfx0cS-18" style="edgeStyle=orthogonalEdgeStyle;rounded=0;orthogonalLoop=1;jettySize=auto;html=1;entryX=1;entryY=0.5;entryDx=0;entryDy=0;" parent="1" source="p0OhxFANoe4dollfx0cS-17" target="p0OhxFANoe4dollfx0cS-11" edge="1">
          <mxGeometry relative="1" as="geometry" />
        </mxCell>
        <mxCell id="p0OhxFANoe4dollfx0cS-26" value="Extends" style="edgeLabel;html=1;align=center;verticalAlign=middle;resizable=0;points=[];" parent="p0OhxFANoe4dollfx0cS-18" vertex="1" connectable="0">
          <mxGeometry x="-0.1437" y="1" relative="1" as="geometry">
            <mxPoint as="offset" />
          </mxGeometry>
        </mxCell>
        <mxCell id="p0OhxFANoe4dollfx0cS-17" value="&lt;font style=&quot;font-size: 8px;&quot;&gt;Просмотр полных новостей&amp;nbsp;&lt;/font&gt;" style="ellipse;whiteSpace=wrap;html=1;" parent="1" vertex="1">
          <mxGeometry x="430" y="350" width="86" height="40" as="geometry" />
        </mxCell>
        <mxCell id="p0OhxFANoe4dollfx0cS-19" value="" style="endArrow=none;html=1;rounded=0;" parent="1" target="p0OhxFANoe4dollfx0cS-11" edge="1">
          <mxGeometry width="50" height="50" relative="1" as="geometry">
            <mxPoint x="130" y="520" as="sourcePoint" />
            <mxPoint x="180" y="470" as="targetPoint" />
          </mxGeometry>
        </mxCell>
        <mxCell id="p0OhxFANoe4dollfx0cS-20" value="&lt;font style=&quot;font-size: 8px;&quot;&gt;Добавление картинок для новости&lt;/font&gt;" style="ellipse;whiteSpace=wrap;html=1;" parent="1" vertex="1">
          <mxGeometry x="390" y="680" width="96" height="40" as="geometry" />
        </mxCell>
        <mxCell id="p0OhxFANoe4dollfx0cS-21" value="" style="endArrow=classic;html=1;rounded=0;exitX=0;exitY=1;exitDx=0;exitDy=0;entryX=1;entryY=0;entryDx=0;entryDy=0;" parent="1" source="p0OhxFANoe4dollfx0cS-20" target="p0OhxFANoe4dollfx0cS-12" edge="1">
          <mxGeometry width="50" height="50" relative="1" as="geometry">
            <mxPoint x="430" y="660" as="sourcePoint" />
            <mxPoint x="480" y="610" as="targetPoint" />
          </mxGeometry>
        </mxCell>
        <mxCell id="p0OhxFANoe4dollfx0cS-27" value="Extends" style="edgeLabel;html=1;align=center;verticalAlign=middle;resizable=0;points=[];" parent="p0OhxFANoe4dollfx0cS-21" vertex="1" connectable="0">
          <mxGeometry x="0.1369" y="2" relative="1" as="geometry">
            <mxPoint y="-1" as="offset" />
          </mxGeometry>
        </mxCell>
        <mxCell id="p0OhxFANoe4dollfx0cS-23" style="edgeStyle=orthogonalEdgeStyle;rounded=0;orthogonalLoop=1;jettySize=auto;html=1;entryX=1;entryY=0.5;entryDx=0;entryDy=0;" parent="1" source="p0OhxFANoe4dollfx0cS-22" target="p0OhxFANoe4dollfx0cS-12" edge="1">
          <mxGeometry relative="1" as="geometry" />
        </mxCell>
        <mxCell id="p0OhxFANoe4dollfx0cS-28" value="Extends" style="edgeLabel;html=1;align=center;verticalAlign=middle;resizable=0;points=[];" parent="p0OhxFANoe4dollfx0cS-23" vertex="1" connectable="0">
          <mxGeometry x="-0.1724" relative="1" as="geometry">
            <mxPoint as="offset" />
          </mxGeometry>
        </mxCell>
        <mxCell id="p0OhxFANoe4dollfx0cS-22" value="&lt;font style=&quot;font-size: 8px;&quot;&gt;Написание текста новости&lt;/font&gt;" style="ellipse;whiteSpace=wrap;html=1;" parent="1" vertex="1">
          <mxGeometry x="435" y="737.5" width="96" height="40" as="geometry" />
        </mxCell>
        <mxCell id="p0OhxFANoe4dollfx0cS-29" value="" style="endArrow=none;html=1;rounded=0;entryX=0;entryY=0;entryDx=0;entryDy=0;" parent="1" target="p0OhxFANoe4dollfx0cS-12" edge="1">
          <mxGeometry width="50" height="50" relative="1" as="geometry">
            <mxPoint x="130" y="530" as="sourcePoint" />
            <mxPoint x="277.1055750203816" y="618.271464664309" as="targetPoint" />
          </mxGeometry>
        </mxCell>
        <mxCell id="p0OhxFANoe4dollfx0cS-31" value="&lt;span style=&quot;font-size: 8px;&quot;&gt;Редактирование написанных новостей&lt;/span&gt;" style="ellipse;whiteSpace=wrap;html=1;" parent="1" vertex="1">
          <mxGeometry x="404" y="810" width="96" height="50" as="geometry" />
        </mxCell>
        <mxCell id="p0OhxFANoe4dollfx0cS-32" value="" style="endArrow=classic;html=1;rounded=0;exitX=0;exitY=0.5;exitDx=0;exitDy=0;entryX=1;entryY=1;entryDx=0;entryDy=0;" parent="1" source="p0OhxFANoe4dollfx0cS-31" target="p0OhxFANoe4dollfx0cS-12" edge="1">
          <mxGeometry width="50" height="50" relative="1" as="geometry">
            <mxPoint x="360" y="770" as="sourcePoint" />
            <mxPoint x="410" y="720" as="targetPoint" />
          </mxGeometry>
        </mxCell>
        <mxCell id="p0OhxFANoe4dollfx0cS-33" value="Extends" style="edgeLabel;html=1;align=center;verticalAlign=middle;resizable=0;points=[];" parent="p0OhxFANoe4dollfx0cS-32" vertex="1" connectable="0">
          <mxGeometry x="-0.0394" y="1" relative="1" as="geometry">
            <mxPoint as="offset" />
          </mxGeometry>
        </mxCell>
        <mxCell id="eYkl5M8Dv6jmmvTOUU6F-1" value="Авторизация" style="ellipse;whiteSpace=wrap;html=1;" vertex="1" parent="1">
          <mxGeometry x="297.5" y="470" width="120" height="55" as="geometry" />
        </mxCell>
        <mxCell id="eYkl5M8Dv6jmmvTOUU6F-2" value="&lt;font style=&quot;font-size: 8px;&quot;&gt;Ввод логина&lt;/font&gt;" style="ellipse;whiteSpace=wrap;html=1;" vertex="1" parent="1">
          <mxGeometry x="437.5" y="420" width="96" height="40" as="geometry" />
        </mxCell>
        <mxCell id="eYkl5M8Dv6jmmvTOUU6F-3" value="&lt;font style=&quot;font-size: 8px;&quot;&gt;Ввод пароля&lt;/font&gt;" style="ellipse;whiteSpace=wrap;html=1;" vertex="1" parent="1">
          <mxGeometry x="482.5" y="477.5" width="96" height="40" as="geometry" />
        </mxCell>
        <mxCell id="eYkl5M8Dv6jmmvTOUU6F-5" value="" style="endArrow=classic;html=1;rounded=0;exitX=0;exitY=0.5;exitDx=0;exitDy=0;entryX=1;entryY=0;entryDx=0;entryDy=0;" edge="1" parent="1" source="eYkl5M8Dv6jmmvTOUU6F-2" target="eYkl5M8Dv6jmmvTOUU6F-1">
          <mxGeometry width="50" height="50" relative="1" as="geometry">
            <mxPoint x="420" y="600" as="sourcePoint" />
            <mxPoint x="470" y="550" as="targetPoint" />
          </mxGeometry>
        </mxCell>
        <mxCell id="eYkl5M8Dv6jmmvTOUU6F-6" value="Extends" style="edgeLabel;html=1;align=center;verticalAlign=middle;resizable=0;points=[];" vertex="1" connectable="0" parent="eYkl5M8Dv6jmmvTOUU6F-5">
          <mxGeometry x="-0.0733" y="-2" relative="1" as="geometry">
            <mxPoint as="offset" />
          </mxGeometry>
        </mxCell>
        <mxCell id="eYkl5M8Dv6jmmvTOUU6F-7" value="" style="endArrow=classic;html=1;rounded=0;entryX=1;entryY=0.5;entryDx=0;entryDy=0;exitX=0;exitY=0.5;exitDx=0;exitDy=0;" edge="1" parent="1" source="eYkl5M8Dv6jmmvTOUU6F-3" target="eYkl5M8Dv6jmmvTOUU6F-1">
          <mxGeometry width="50" height="50" relative="1" as="geometry">
            <mxPoint x="420" y="620" as="sourcePoint" />
            <mxPoint x="470" y="570" as="targetPoint" />
          </mxGeometry>
        </mxCell>
        <mxCell id="eYkl5M8Dv6jmmvTOUU6F-8" value="Extends" style="edgeLabel;html=1;align=center;verticalAlign=middle;resizable=0;points=[];" vertex="1" connectable="0" parent="eYkl5M8Dv6jmmvTOUU6F-7">
          <mxGeometry x="-0.0451" relative="1" as="geometry">
            <mxPoint as="offset" />
          </mxGeometry>
        </mxCell>
        <mxCell id="eYkl5M8Dv6jmmvTOUU6F-9" value="" style="endArrow=none;html=1;rounded=0;entryX=0;entryY=0.5;entryDx=0;entryDy=0;" edge="1" parent="1" target="eYkl5M8Dv6jmmvTOUU6F-1">
          <mxGeometry width="50" height="50" relative="1" as="geometry">
            <mxPoint x="140" y="530" as="sourcePoint" />
            <mxPoint x="190" y="480" as="targetPoint" />
          </mxGeometry>
        </mxCell>
        <mxCell id="eYkl5M8Dv6jmmvTOUU6F-10" value="Регистрация" style="ellipse;whiteSpace=wrap;html=1;" vertex="1" parent="1">
          <mxGeometry x="320" y="582" width="120" height="55" as="geometry" />
        </mxCell>
        <mxCell id="eYkl5M8Dv6jmmvTOUU6F-11" value="&lt;font style=&quot;font-size: 8px;&quot;&gt;Ввод логина&lt;/font&gt;" style="ellipse;whiteSpace=wrap;html=1;" vertex="1" parent="1">
          <mxGeometry x="486" y="530" width="96" height="40" as="geometry" />
        </mxCell>
        <mxCell id="eYkl5M8Dv6jmmvTOUU6F-12" value="&lt;font style=&quot;font-size: 8px;&quot;&gt;Ввод пароля&lt;/font&gt;" style="ellipse;whiteSpace=wrap;html=1;" vertex="1" parent="1">
          <mxGeometry x="482.5" y="610" width="96" height="40" as="geometry" />
        </mxCell>
        <mxCell id="eYkl5M8Dv6jmmvTOUU6F-13" value="" style="endArrow=classic;html=1;rounded=0;entryX=1;entryY=0;entryDx=0;entryDy=0;exitX=0;exitY=0.5;exitDx=0;exitDy=0;" edge="1" parent="1" source="eYkl5M8Dv6jmmvTOUU6F-11" target="eYkl5M8Dv6jmmvTOUU6F-10">
          <mxGeometry width="50" height="50" relative="1" as="geometry">
            <mxPoint x="410" y="690" as="sourcePoint" />
            <mxPoint x="460" y="640" as="targetPoint" />
          </mxGeometry>
        </mxCell>
        <mxCell id="eYkl5M8Dv6jmmvTOUU6F-16" value="Extends" style="edgeLabel;html=1;align=center;verticalAlign=middle;resizable=0;points=[];" vertex="1" connectable="0" parent="eYkl5M8Dv6jmmvTOUU6F-13">
          <mxGeometry x="-0.1432" y="-1" relative="1" as="geometry">
            <mxPoint as="offset" />
          </mxGeometry>
        </mxCell>
        <mxCell id="eYkl5M8Dv6jmmvTOUU6F-17" value="" style="endArrow=classic;html=1;rounded=0;entryX=1;entryY=0.5;entryDx=0;entryDy=0;exitX=0;exitY=0.5;exitDx=0;exitDy=0;" edge="1" parent="1" source="eYkl5M8Dv6jmmvTOUU6F-12" target="eYkl5M8Dv6jmmvTOUU6F-10">
          <mxGeometry width="50" height="50" relative="1" as="geometry">
            <mxPoint x="390" y="670" as="sourcePoint" />
            <mxPoint x="440" y="620" as="targetPoint" />
          </mxGeometry>
        </mxCell>
        <mxCell id="eYkl5M8Dv6jmmvTOUU6F-18" value="Extends" style="edgeLabel;html=1;align=center;verticalAlign=middle;resizable=0;points=[];" vertex="1" connectable="0" parent="eYkl5M8Dv6jmmvTOUU6F-17">
          <mxGeometry x="-0.0797" y="-1" relative="1" as="geometry">
            <mxPoint as="offset" />
          </mxGeometry>
        </mxCell>
        <mxCell id="eYkl5M8Dv6jmmvTOUU6F-19" value="" style="endArrow=none;html=1;rounded=0;entryX=0;entryY=0.5;entryDx=0;entryDy=0;" edge="1" parent="1" target="eYkl5M8Dv6jmmvTOUU6F-10">
          <mxGeometry width="50" height="50" relative="1" as="geometry">
            <mxPoint x="140" y="530" as="sourcePoint" />
            <mxPoint x="190" y="480" as="targetPoint" />
          </mxGeometry>
        </mxCell>
      </root>
    </mxGraphModel>
  </diagram>
</mxfile>
